# xmcd CD database file
#
# Track frame offsets:
#	150
#	14445
#	33176
#	49104
#	66585
#	77428
#	94759
#	111920
#	129200
#	146636
#	164045
#	178185
#	195243
#	208950
#	227742
#	244128
#	260976
#	278396
#
# Disc length: 3927 seconds
#
# Revision: 0
# Processed by: cddbd v1.5.1PL0 Copyright (c) Steve Scherf et al.
# Submitted via: CDex 1.51
#
DISCID=040f5512
DTITLE=Promo Only Canada - September 2002 Country Radio
DYEAR=2002
DGENRE=Country
TTITLE0=Carolyn Dawn Johnson - One Day Closer To You
TTITLE1=Steve Azar - Waitin' On Joe
TTITLE2=Lonestar - Unusually Unusual
TTITLE3=Toby Keith - Who's Your Daddy?
TTITLE4=Dwight Yoakam - Sitting Pretty
TTITLE5=Radney Foster - Everyday Angel
TTITLE6=Hal Ketchum - Richest Man In Texas
TTITLE7=Kellie Coffey - At The End Of The Day
TTITLE8=Natalie Grant - What Other Man
TTITLE9=Shannon Lawson - Dream Your Way To Me
TTITLE10=Tanya Tucker - A Memory Like I'm Gonna Be
TTITLE11=Travis Tritt - Strong Enough To Be Your Man
TTITLE12=Marie Sisters - Real Bad Mood
TTITLE13=Trisha Yearwood - I Don't Paint Myself Into Corners
TTITLE14=Jennifer Hanson - Beautiful Goodbye
TTITLE15=Sawyer Brown - I Need Girlfriend
TTITLE16=Keith Urban - Somebody Like You
TTITLE17=Bonnie Rait - Silver Lining
EXTD=YEAR: 2002
EXTT0=
EXTT1=
EXTT2=
EXTT3=
EXTT4=
EXTT5=
EXTT6=
EXTT7=
EXTT8=
EXTT9=
EXTT10=
EXTT11=
EXTT12=
EXTT13=
EXTT14=
EXTT15=
EXTT16=
EXTT17=
PLAYORDER=
